<svg width="21" height="27" viewBox="0 0 21 27" fill="none" xmlns="http://www.w3.org/2000/svg">
<g id="Bookmark">
<path id="Rectangle 1" d="M3.87231 9.99116C3.87231 6.89565 3.87231 5.34789 4.59068 4.38624C5.30904 3.42458 6.46522 3.42458 8.77759 3.42458H12.0478C14.3601 3.42458 15.5163 3.42458 16.2347 4.38624C16.9531 5.34789 16.9531 6.89565 16.9531 9.99116V17.4635C16.9531 20.4002 16.9531 21.8685 16.2628 22.3176C15.5726 22.7667 14.7101 21.8595 12.9851 20.0452L12.4331 19.4646C11.4632 18.4444 10.9782 17.9343 10.4127 17.9343C9.84717 17.9343 9.36221 18.4444 8.39229 19.4646L7.84024 20.0452C6.11529 21.8595 5.25281 22.7667 4.56256 22.3176C3.87231 21.8685 3.87231 20.4002 3.87231 17.4635V9.99116Z" stroke="white" stroke-width="2"/>
</g>
</svg>
